<mxfile host="app.diagrams.net" modified="2023-04-25T08:16:03.525Z" agent="Mozilla/5.0 (Windows NT 10.0; Win64; x64) AppleWebKit/537.36 (KHTML, like Gecko) Chrome/114.0.0.0 Safari/537.36 Edg/114.0.0.0" etag="--itwWdAZIN7eICx6R4o" version="21.1.4" type="device">
  <diagram name="第 1 页" id="Q2qR75Se1O0NnkH7DmAa">
    <mxGraphModel dx="2760" dy="1212" grid="1" gridSize="10" guides="1" tooltips="1" connect="1" arrows="1" fold="1" page="1" pageScale="1" pageWidth="827" pageHeight="1169" math="0" shadow="0">
      <root>
        <mxCell id="0" />
        <mxCell id="1" parent="0" />
        <mxCell id="EFvcpuvc_bUxXY1CjJRT-1" value="是" style="edgeStyle=orthogonalEdgeStyle;rounded=0;orthogonalLoop=1;jettySize=auto;html=1;" edge="1" parent="1" source="EFvcpuvc_bUxXY1CjJRT-3" target="EFvcpuvc_bUxXY1CjJRT-7">
          <mxGeometry relative="1" as="geometry" />
        </mxCell>
        <mxCell id="EFvcpuvc_bUxXY1CjJRT-2" value="否" style="edgeStyle=orthogonalEdgeStyle;rounded=0;orthogonalLoop=1;jettySize=auto;html=1;" edge="1" parent="1" source="EFvcpuvc_bUxXY1CjJRT-3" target="EFvcpuvc_bUxXY1CjJRT-10">
          <mxGeometry relative="1" as="geometry">
            <mxPoint x="419" y="290.0000000000001" as="targetPoint" />
          </mxGeometry>
        </mxCell>
        <mxCell id="EFvcpuvc_bUxXY1CjJRT-3" value="1" style="rhombus;whiteSpace=wrap;html=1;" vertex="1" parent="1">
          <mxGeometry x="139" y="250" width="80" height="80" as="geometry" />
        </mxCell>
        <mxCell id="EFvcpuvc_bUxXY1CjJRT-4" style="edgeStyle=orthogonalEdgeStyle;rounded=0;orthogonalLoop=1;jettySize=auto;html=1;" edge="1" parent="1" source="EFvcpuvc_bUxXY1CjJRT-5" target="EFvcpuvc_bUxXY1CjJRT-3">
          <mxGeometry relative="1" as="geometry" />
        </mxCell>
        <mxCell id="EFvcpuvc_bUxXY1CjJRT-5" value="功能选择" style="shape=parallelogram;perimeter=parallelogramPerimeter;whiteSpace=wrap;html=1;fixedSize=1;" vertex="1" parent="1">
          <mxGeometry x="354" y="150" width="120" height="60" as="geometry" />
        </mxCell>
        <mxCell id="EFvcpuvc_bUxXY1CjJRT-6" style="edgeStyle=orthogonalEdgeStyle;rounded=0;orthogonalLoop=1;jettySize=auto;html=1;" edge="1" parent="1" source="EFvcpuvc_bUxXY1CjJRT-7" target="EFvcpuvc_bUxXY1CjJRT-21">
          <mxGeometry relative="1" as="geometry" />
        </mxCell>
        <mxCell id="EFvcpuvc_bUxXY1CjJRT-7" value="登录" style="rounded=0;whiteSpace=wrap;html=1;" vertex="1" parent="1">
          <mxGeometry x="119" y="360" width="120" height="60" as="geometry" />
        </mxCell>
        <mxCell id="EFvcpuvc_bUxXY1CjJRT-8" value="是" style="edgeStyle=orthogonalEdgeStyle;rounded=0;orthogonalLoop=1;jettySize=auto;html=1;" edge="1" parent="1" source="EFvcpuvc_bUxXY1CjJRT-10" target="EFvcpuvc_bUxXY1CjJRT-12">
          <mxGeometry relative="1" as="geometry" />
        </mxCell>
        <mxCell id="EFvcpuvc_bUxXY1CjJRT-9" value="否" style="edgeStyle=orthogonalEdgeStyle;rounded=0;orthogonalLoop=1;jettySize=auto;html=1;" edge="1" parent="1" source="EFvcpuvc_bUxXY1CjJRT-10" target="EFvcpuvc_bUxXY1CjJRT-15">
          <mxGeometry relative="1" as="geometry" />
        </mxCell>
        <mxCell id="EFvcpuvc_bUxXY1CjJRT-10" value="2" style="rhombus;whiteSpace=wrap;html=1;" vertex="1" parent="1">
          <mxGeometry x="303" y="250" width="80" height="80" as="geometry" />
        </mxCell>
        <mxCell id="EFvcpuvc_bUxXY1CjJRT-11" style="edgeStyle=orthogonalEdgeStyle;rounded=0;orthogonalLoop=1;jettySize=auto;html=1;" edge="1" parent="1" source="EFvcpuvc_bUxXY1CjJRT-12" target="EFvcpuvc_bUxXY1CjJRT-32">
          <mxGeometry relative="1" as="geometry" />
        </mxCell>
        <mxCell id="EFvcpuvc_bUxXY1CjJRT-12" value="注册" style="rounded=0;whiteSpace=wrap;html=1;" vertex="1" parent="1">
          <mxGeometry x="283" y="360" width="120" height="60" as="geometry" />
        </mxCell>
        <mxCell id="EFvcpuvc_bUxXY1CjJRT-13" value="是" style="edgeStyle=orthogonalEdgeStyle;rounded=0;orthogonalLoop=1;jettySize=auto;html=1;" edge="1" parent="1" source="EFvcpuvc_bUxXY1CjJRT-15" target="EFvcpuvc_bUxXY1CjJRT-17">
          <mxGeometry relative="1" as="geometry" />
        </mxCell>
        <mxCell id="EFvcpuvc_bUxXY1CjJRT-14" value="否" style="edgeStyle=orthogonalEdgeStyle;rounded=0;orthogonalLoop=1;jettySize=auto;html=1;" edge="1" parent="1" source="EFvcpuvc_bUxXY1CjJRT-15" target="EFvcpuvc_bUxXY1CjJRT-19">
          <mxGeometry relative="1" as="geometry" />
        </mxCell>
        <mxCell id="EFvcpuvc_bUxXY1CjJRT-15" value="3" style="rhombus;whiteSpace=wrap;html=1;" vertex="1" parent="1">
          <mxGeometry x="489" y="250" width="80" height="80" as="geometry" />
        </mxCell>
        <mxCell id="EFvcpuvc_bUxXY1CjJRT-16" style="edgeStyle=orthogonalEdgeStyle;rounded=0;orthogonalLoop=1;jettySize=auto;html=1;" edge="1" parent="1" source="EFvcpuvc_bUxXY1CjJRT-17" target="EFvcpuvc_bUxXY1CjJRT-52">
          <mxGeometry relative="1" as="geometry" />
        </mxCell>
        <mxCell id="EFvcpuvc_bUxXY1CjJRT-17" value="找回密码" style="rounded=0;whiteSpace=wrap;html=1;" vertex="1" parent="1">
          <mxGeometry x="469" y="360" width="120" height="60" as="geometry" />
        </mxCell>
        <mxCell id="EFvcpuvc_bUxXY1CjJRT-18" style="edgeStyle=orthogonalEdgeStyle;rounded=0;orthogonalLoop=1;jettySize=auto;html=1;" edge="1" parent="1" source="EFvcpuvc_bUxXY1CjJRT-19" target="EFvcpuvc_bUxXY1CjJRT-5">
          <mxGeometry relative="1" as="geometry">
            <Array as="points">
              <mxPoint x="669" y="180" />
            </Array>
          </mxGeometry>
        </mxCell>
        <mxCell id="EFvcpuvc_bUxXY1CjJRT-19" value="0" style="rhombus;whiteSpace=wrap;html=1;" vertex="1" parent="1">
          <mxGeometry x="629" y="250" width="80" height="80" as="geometry" />
        </mxCell>
        <mxCell id="EFvcpuvc_bUxXY1CjJRT-20" style="edgeStyle=orthogonalEdgeStyle;rounded=0;orthogonalLoop=1;jettySize=auto;html=1;" edge="1" parent="1" source="EFvcpuvc_bUxXY1CjJRT-21" target="EFvcpuvc_bUxXY1CjJRT-24">
          <mxGeometry relative="1" as="geometry" />
        </mxCell>
        <mxCell id="EFvcpuvc_bUxXY1CjJRT-21" value="输入账号" style="shape=parallelogram;perimeter=parallelogramPerimeter;whiteSpace=wrap;html=1;fixedSize=1;" vertex="1" parent="1">
          <mxGeometry x="119" y="460" width="120" height="60" as="geometry" />
        </mxCell>
        <mxCell id="EFvcpuvc_bUxXY1CjJRT-22" value="否" style="edgeStyle=orthogonalEdgeStyle;rounded=0;orthogonalLoop=1;jettySize=auto;html=1;" edge="1" parent="1" source="EFvcpuvc_bUxXY1CjJRT-24" target="EFvcpuvc_bUxXY1CjJRT-21">
          <mxGeometry relative="1" as="geometry">
            <Array as="points">
              <mxPoint x="269" y="590" />
              <mxPoint x="269" y="490" />
            </Array>
          </mxGeometry>
        </mxCell>
        <mxCell id="EFvcpuvc_bUxXY1CjJRT-23" value="是" style="edgeStyle=orthogonalEdgeStyle;rounded=0;orthogonalLoop=1;jettySize=auto;html=1;" edge="1" parent="1" source="EFvcpuvc_bUxXY1CjJRT-24" target="EFvcpuvc_bUxXY1CjJRT-26">
          <mxGeometry relative="1" as="geometry" />
        </mxCell>
        <mxCell id="EFvcpuvc_bUxXY1CjJRT-24" value="判断是否存在" style="rhombus;whiteSpace=wrap;html=1;" vertex="1" parent="1">
          <mxGeometry x="139" y="550" width="80" height="80" as="geometry" />
        </mxCell>
        <mxCell id="EFvcpuvc_bUxXY1CjJRT-25" style="edgeStyle=orthogonalEdgeStyle;rounded=0;orthogonalLoop=1;jettySize=auto;html=1;" edge="1" parent="1" source="EFvcpuvc_bUxXY1CjJRT-26" target="EFvcpuvc_bUxXY1CjJRT-29">
          <mxGeometry relative="1" as="geometry" />
        </mxCell>
        <mxCell id="EFvcpuvc_bUxXY1CjJRT-26" value="输入密码" style="shape=parallelogram;perimeter=parallelogramPerimeter;whiteSpace=wrap;html=1;fixedSize=1;" vertex="1" parent="1">
          <mxGeometry x="119" y="660" width="120" height="60" as="geometry" />
        </mxCell>
        <mxCell id="EFvcpuvc_bUxXY1CjJRT-27" value="否" style="edgeStyle=orthogonalEdgeStyle;rounded=0;orthogonalLoop=1;jettySize=auto;html=1;" edge="1" parent="1" source="EFvcpuvc_bUxXY1CjJRT-29" target="EFvcpuvc_bUxXY1CjJRT-26">
          <mxGeometry relative="1" as="geometry">
            <Array as="points">
              <mxPoint x="269" y="790" />
              <mxPoint x="269" y="690" />
            </Array>
          </mxGeometry>
        </mxCell>
        <mxCell id="EFvcpuvc_bUxXY1CjJRT-28" value="是" style="edgeStyle=orthogonalEdgeStyle;rounded=0;orthogonalLoop=1;jettySize=auto;html=1;" edge="1" parent="1" source="EFvcpuvc_bUxXY1CjJRT-29" target="EFvcpuvc_bUxXY1CjJRT-30">
          <mxGeometry relative="1" as="geometry" />
        </mxCell>
        <mxCell id="EFvcpuvc_bUxXY1CjJRT-29" value="密码是否正确" style="rhombus;whiteSpace=wrap;html=1;" vertex="1" parent="1">
          <mxGeometry x="139" y="750" width="80" height="80" as="geometry" />
        </mxCell>
        <mxCell id="EFvcpuvc_bUxXY1CjJRT-30" value="结束" style="rounded=1;whiteSpace=wrap;html=1;" vertex="1" parent="1">
          <mxGeometry x="119" y="880" width="120" height="60" as="geometry" />
        </mxCell>
        <mxCell id="EFvcpuvc_bUxXY1CjJRT-31" style="edgeStyle=orthogonalEdgeStyle;rounded=0;orthogonalLoop=1;jettySize=auto;html=1;" edge="1" parent="1" source="EFvcpuvc_bUxXY1CjJRT-32" target="EFvcpuvc_bUxXY1CjJRT-34">
          <mxGeometry relative="1" as="geometry" />
        </mxCell>
        <mxCell id="EFvcpuvc_bUxXY1CjJRT-32" value="输入学号" style="shape=parallelogram;perimeter=parallelogramPerimeter;whiteSpace=wrap;html=1;fixedSize=1;" vertex="1" parent="1">
          <mxGeometry x="283" y="460" width="120" height="60" as="geometry" />
        </mxCell>
        <mxCell id="EFvcpuvc_bUxXY1CjJRT-33" style="edgeStyle=orthogonalEdgeStyle;rounded=0;orthogonalLoop=1;jettySize=auto;html=1;" edge="1" parent="1" source="EFvcpuvc_bUxXY1CjJRT-34" target="EFvcpuvc_bUxXY1CjJRT-36">
          <mxGeometry relative="1" as="geometry" />
        </mxCell>
        <mxCell id="EFvcpuvc_bUxXY1CjJRT-34" value="输入姓名" style="shape=parallelogram;perimeter=parallelogramPerimeter;whiteSpace=wrap;html=1;fixedSize=1;" vertex="1" parent="1">
          <mxGeometry x="283" y="560" width="120" height="60" as="geometry" />
        </mxCell>
        <mxCell id="EFvcpuvc_bUxXY1CjJRT-35" style="edgeStyle=orthogonalEdgeStyle;rounded=0;orthogonalLoop=1;jettySize=auto;html=1;" edge="1" parent="1" source="EFvcpuvc_bUxXY1CjJRT-36" target="EFvcpuvc_bUxXY1CjJRT-38">
          <mxGeometry relative="1" as="geometry" />
        </mxCell>
        <mxCell id="EFvcpuvc_bUxXY1CjJRT-36" value="输入电话" style="shape=parallelogram;perimeter=parallelogramPerimeter;whiteSpace=wrap;html=1;fixedSize=1;" vertex="1" parent="1">
          <mxGeometry x="283" y="660" width="120" height="60" as="geometry" />
        </mxCell>
        <mxCell id="EFvcpuvc_bUxXY1CjJRT-37" style="edgeStyle=orthogonalEdgeStyle;rounded=0;orthogonalLoop=1;jettySize=auto;html=1;" edge="1" parent="1" source="EFvcpuvc_bUxXY1CjJRT-38" target="EFvcpuvc_bUxXY1CjJRT-40">
          <mxGeometry relative="1" as="geometry" />
        </mxCell>
        <mxCell id="EFvcpuvc_bUxXY1CjJRT-38" value="输入密码" style="shape=parallelogram;perimeter=parallelogramPerimeter;whiteSpace=wrap;html=1;fixedSize=1;" vertex="1" parent="1">
          <mxGeometry x="283" y="760" width="120" height="60" as="geometry" />
        </mxCell>
        <mxCell id="EFvcpuvc_bUxXY1CjJRT-39" style="edgeStyle=orthogonalEdgeStyle;rounded=0;orthogonalLoop=1;jettySize=auto;html=1;" edge="1" parent="1" source="EFvcpuvc_bUxXY1CjJRT-40" target="EFvcpuvc_bUxXY1CjJRT-43">
          <mxGeometry relative="1" as="geometry" />
        </mxCell>
        <mxCell id="EFvcpuvc_bUxXY1CjJRT-40" value="再次输入密码" style="shape=parallelogram;perimeter=parallelogramPerimeter;whiteSpace=wrap;html=1;fixedSize=1;" vertex="1" parent="1">
          <mxGeometry x="283" y="860" width="120" height="60" as="geometry" />
        </mxCell>
        <mxCell id="EFvcpuvc_bUxXY1CjJRT-41" style="edgeStyle=orthogonalEdgeStyle;rounded=0;orthogonalLoop=1;jettySize=auto;html=1;" edge="1" parent="1" source="EFvcpuvc_bUxXY1CjJRT-43" target="EFvcpuvc_bUxXY1CjJRT-40">
          <mxGeometry relative="1" as="geometry">
            <Array as="points">
              <mxPoint x="453" y="1000" />
              <mxPoint x="453" y="890" />
            </Array>
          </mxGeometry>
        </mxCell>
        <mxCell id="EFvcpuvc_bUxXY1CjJRT-42" style="edgeStyle=orthogonalEdgeStyle;rounded=0;orthogonalLoop=1;jettySize=auto;html=1;" edge="1" parent="1" source="EFvcpuvc_bUxXY1CjJRT-43" target="EFvcpuvc_bUxXY1CjJRT-45">
          <mxGeometry relative="1" as="geometry" />
        </mxCell>
        <mxCell id="EFvcpuvc_bUxXY1CjJRT-43" value="是否相等" style="rhombus;whiteSpace=wrap;html=1;" vertex="1" parent="1">
          <mxGeometry x="303" y="960" width="80" height="80" as="geometry" />
        </mxCell>
        <mxCell id="EFvcpuvc_bUxXY1CjJRT-44" style="edgeStyle=orthogonalEdgeStyle;rounded=0;orthogonalLoop=1;jettySize=auto;html=1;" edge="1" parent="1" source="EFvcpuvc_bUxXY1CjJRT-45" target="EFvcpuvc_bUxXY1CjJRT-47">
          <mxGeometry relative="1" as="geometry" />
        </mxCell>
        <mxCell id="EFvcpuvc_bUxXY1CjJRT-45" value="输入密保问题" style="shape=parallelogram;perimeter=parallelogramPerimeter;whiteSpace=wrap;html=1;fixedSize=1;" vertex="1" parent="1">
          <mxGeometry x="283" y="1080" width="120" height="60" as="geometry" />
        </mxCell>
        <mxCell id="EFvcpuvc_bUxXY1CjJRT-46" style="edgeStyle=orthogonalEdgeStyle;rounded=0;orthogonalLoop=1;jettySize=auto;html=1;" edge="1" parent="1" source="EFvcpuvc_bUxXY1CjJRT-47" target="EFvcpuvc_bUxXY1CjJRT-49">
          <mxGeometry relative="1" as="geometry" />
        </mxCell>
        <mxCell id="EFvcpuvc_bUxXY1CjJRT-47" value="输入密保问题答案" style="shape=parallelogram;perimeter=parallelogramPerimeter;whiteSpace=wrap;html=1;fixedSize=1;" vertex="1" parent="1">
          <mxGeometry x="283" y="1180" width="120" height="60" as="geometry" />
        </mxCell>
        <mxCell id="EFvcpuvc_bUxXY1CjJRT-48" style="edgeStyle=orthogonalEdgeStyle;rounded=0;orthogonalLoop=1;jettySize=auto;html=1;" edge="1" parent="1" source="EFvcpuvc_bUxXY1CjJRT-49" target="EFvcpuvc_bUxXY1CjJRT-50">
          <mxGeometry relative="1" as="geometry" />
        </mxCell>
        <mxCell id="EFvcpuvc_bUxXY1CjJRT-49" value="输出账号" style="shape=parallelogram;perimeter=parallelogramPerimeter;whiteSpace=wrap;html=1;fixedSize=1;" vertex="1" parent="1">
          <mxGeometry x="283" y="1280" width="120" height="60" as="geometry" />
        </mxCell>
        <mxCell id="EFvcpuvc_bUxXY1CjJRT-50" value="结束" style="rounded=1;whiteSpace=wrap;html=1;" vertex="1" parent="1">
          <mxGeometry x="283" y="1380" width="120" height="60" as="geometry" />
        </mxCell>
        <mxCell id="EFvcpuvc_bUxXY1CjJRT-51" style="edgeStyle=orthogonalEdgeStyle;rounded=0;orthogonalLoop=1;jettySize=auto;html=1;" edge="1" parent="1" source="EFvcpuvc_bUxXY1CjJRT-52" target="EFvcpuvc_bUxXY1CjJRT-55">
          <mxGeometry relative="1" as="geometry" />
        </mxCell>
        <mxCell id="EFvcpuvc_bUxXY1CjJRT-52" value="输入账号" style="shape=parallelogram;perimeter=parallelogramPerimeter;whiteSpace=wrap;html=1;fixedSize=1;" vertex="1" parent="1">
          <mxGeometry x="469" y="460" width="120" height="60" as="geometry" />
        </mxCell>
        <mxCell id="EFvcpuvc_bUxXY1CjJRT-53" value="否" style="edgeStyle=orthogonalEdgeStyle;rounded=0;orthogonalLoop=1;jettySize=auto;html=1;" edge="1" parent="1" source="EFvcpuvc_bUxXY1CjJRT-55" target="EFvcpuvc_bUxXY1CjJRT-52">
          <mxGeometry relative="1" as="geometry">
            <Array as="points">
              <mxPoint x="619" y="600" />
              <mxPoint x="619" y="490" />
            </Array>
          </mxGeometry>
        </mxCell>
        <mxCell id="EFvcpuvc_bUxXY1CjJRT-54" value="是" style="edgeStyle=orthogonalEdgeStyle;rounded=0;orthogonalLoop=1;jettySize=auto;html=1;" edge="1" parent="1" source="EFvcpuvc_bUxXY1CjJRT-55" target="EFvcpuvc_bUxXY1CjJRT-57">
          <mxGeometry relative="1" as="geometry" />
        </mxCell>
        <mxCell id="EFvcpuvc_bUxXY1CjJRT-55" value="是否存在" style="rhombus;whiteSpace=wrap;html=1;" vertex="1" parent="1">
          <mxGeometry x="489" y="560" width="80" height="80" as="geometry" />
        </mxCell>
        <mxCell id="EFvcpuvc_bUxXY1CjJRT-56" style="edgeStyle=orthogonalEdgeStyle;rounded=0;orthogonalLoop=1;jettySize=auto;html=1;" edge="1" parent="1" source="EFvcpuvc_bUxXY1CjJRT-57" target="EFvcpuvc_bUxXY1CjJRT-60">
          <mxGeometry relative="1" as="geometry" />
        </mxCell>
        <mxCell id="EFvcpuvc_bUxXY1CjJRT-57" value="输入密保问题答案" style="shape=parallelogram;perimeter=parallelogramPerimeter;whiteSpace=wrap;html=1;fixedSize=1;" vertex="1" parent="1">
          <mxGeometry x="469" y="680" width="120" height="60" as="geometry" />
        </mxCell>
        <mxCell id="EFvcpuvc_bUxXY1CjJRT-58" value="否" style="edgeStyle=orthogonalEdgeStyle;rounded=0;orthogonalLoop=1;jettySize=auto;html=1;" edge="1" parent="1" source="EFvcpuvc_bUxXY1CjJRT-60" target="EFvcpuvc_bUxXY1CjJRT-57">
          <mxGeometry relative="1" as="geometry">
            <Array as="points">
              <mxPoint x="619" y="820" />
              <mxPoint x="619" y="710" />
            </Array>
          </mxGeometry>
        </mxCell>
        <mxCell id="EFvcpuvc_bUxXY1CjJRT-59" value="是" style="edgeStyle=orthogonalEdgeStyle;rounded=0;orthogonalLoop=1;jettySize=auto;html=1;" edge="1" parent="1" source="EFvcpuvc_bUxXY1CjJRT-60" target="EFvcpuvc_bUxXY1CjJRT-62">
          <mxGeometry relative="1" as="geometry" />
        </mxCell>
        <mxCell id="EFvcpuvc_bUxXY1CjJRT-60" value="是否正确" style="rhombus;whiteSpace=wrap;html=1;" vertex="1" parent="1">
          <mxGeometry x="489" y="780" width="80" height="80" as="geometry" />
        </mxCell>
        <mxCell id="EFvcpuvc_bUxXY1CjJRT-61" style="edgeStyle=orthogonalEdgeStyle;rounded=0;orthogonalLoop=1;jettySize=auto;html=1;" edge="1" parent="1" source="EFvcpuvc_bUxXY1CjJRT-62" target="EFvcpuvc_bUxXY1CjJRT-63">
          <mxGeometry relative="1" as="geometry" />
        </mxCell>
        <mxCell id="EFvcpuvc_bUxXY1CjJRT-62" value="设置新密码" style="rounded=0;whiteSpace=wrap;html=1;" vertex="1" parent="1">
          <mxGeometry x="469" y="900" width="120" height="60" as="geometry" />
        </mxCell>
        <mxCell id="EFvcpuvc_bUxXY1CjJRT-63" value="结束" style="rounded=1;whiteSpace=wrap;html=1;" vertex="1" parent="1">
          <mxGeometry x="469" y="1000" width="120" height="60" as="geometry" />
        </mxCell>
        <mxCell id="EFvcpuvc_bUxXY1CjJRT-65" style="edgeStyle=orthogonalEdgeStyle;rounded=0;orthogonalLoop=1;jettySize=auto;html=1;" edge="1" parent="1" source="EFvcpuvc_bUxXY1CjJRT-64" target="EFvcpuvc_bUxXY1CjJRT-5">
          <mxGeometry relative="1" as="geometry" />
        </mxCell>
        <mxCell id="EFvcpuvc_bUxXY1CjJRT-64" value="开始" style="rounded=1;whiteSpace=wrap;html=1;" vertex="1" parent="1">
          <mxGeometry x="354" y="50" width="120" height="60" as="geometry" />
        </mxCell>
      </root>
    </mxGraphModel>
  </diagram>
</mxfile>
